<?xml version="1.0" encoding="UTF-8"?>
<svg xmlns="http://www.w3.org/2000/svg" width="800" height="350" viewBox="0 0 800 350" font-family="Helvetica, Arial, sans-serif">
  <!-- Nodes -->
  <rect x="30" y="140" width="100" height="60" fill="#4da6ff" stroke="#003d80"/>
  <text x="80" y="175" fill="white" font-size="12" text-anchor="middle">Browser</text>

  <rect x="180" y="140" width="100" height="60" fill="#80bfff" stroke="#005c99"/>
  <text x="230" y="175" fill="black" font-size="12" text-anchor="middle">Nginx</text>

  <rect x="330" y="140" width="120" height="60" fill="#ffd966" stroke="#b58c00"/>
  <text x="390" y="170" fill="black" font-size="12" text-anchor="middle">FastAPI</text>
  <text x="390" y="185" fill="black" font-size="11" text-anchor="middle">(async)</text>

  <rect x="520" y="60" width="120" height="60" fill="#ffb3b3" stroke="#cc6666"/>
  <text x="580" y="95" fill="black" font-size="12" text-anchor="middle">Redis</text>
  <text x="580" y="110" fill="black" font-size="11" text-anchor="middle">Broker/Cache</text>

  <rect x="520" y="220" width="120" height="60" fill="#b3ffb3" stroke="#66cc66"/>
  <text x="580" y="255" fill="black" font-size="12" text-anchor="middle">PostgreSQL</text>

  <rect x="670" y="140" width="120" height="60" fill="#d9b3ff" stroke="#774d99"/>
  <text x="730" y="170" fill="black" font-size="12" text-anchor="middle">Celery</text>
  <text x="730" y="185" fill="black" font-size="11" text-anchor="middle">Worker</text>

  <!-- Arrows -->
  <defs>
    <marker id="arrow" markerWidth="10" markerHeight="10" refX="6" refY="3" orient="auto" markerUnits="strokeWidth">
      <path d="M0 0 L0 6 L9 3 z" fill="#333" />
    </marker>
  </defs>

  <!-- Browser -> Nginx -->
  <line x1="130" y1="170" x2="180" y2="170" stroke="#333" stroke-width="2" marker-end="url(#arrow)"/>

  <!-- Nginx -> FastAPI -->
  <line x1="280" y1="170" x2="330" y2="170" stroke="#333" stroke-width="2" marker-end="url(#arrow)"/>

  <!-- FastAPI -> Redis -->
  <line x1="450" y1="170" x2="520" y2="100" stroke="#333" stroke-width="2" marker-end="url(#arrow)"/>

  <!-- FastAPI -> PostgreSQL -->
  <line x1="450" y1="170" x2="520" y2="250" stroke="#333" stroke-width="2" marker-end="url(#arrow)"/>

  <!-- FastAPI -> Celery broker -->
  <line x1="450" y1="170" x2="670" y2="170" stroke="#333" stroke-width="2" marker-end="url(#arrow)"/>

  <!-- Celery -> PostgreSQL -->
  <line x1="670" y1="200" x2="640" y2="220" stroke="#333" stroke-width="2" marker-end="url(#arrow)"/>

  <!-- Celery -> Redis -->
  <line x1="670" y1="140" x2="640" y2="120" stroke="#333" stroke-width="2" marker-end="url(#arrow)"/>
</svg> 